<svg width="638" height="143" fill="none" xmlns="http://www.w3.org/2000/svg"><g clip-path="url(#a)"><path d="M87.56 3.86c-7.87 0-11.97 2.94-11.97 2.94v.03h-.01v114.29s-7.59 6.95-23.5 6.95c-17.84 0-27.55-10.99-27.55-18.63V6.81s-4.17-2.95-12.25-2.95S0 6.8 0 6.8v102.43c0 16.28 22.82 27.28 29.87 30.19 8.19 3.35 25.82 3.01 34.81 2.16 16.15-1.48 34.84-11 34.84-11V6.8s-4.1-2.94-11.97-2.94" fill="#126CB5"/><path d="m261.09 22.92-5.32 14.85c-1.45-1.14-4.19-2.02-5.64-2.02-5.47 0-10.38 4.19-10.38 10.53v46.13h-14.99V22.64s1.82-2.75 7.2-2.75 6.93 2.75 6.93 2.75v7.64h.28c2.45-5.76 7.64-9.51 13.7-9.51 3.32 0 6.21.86 8.21 2.15m8.51-14.55c0-4.62 3.75-8.37 8.35-8.37s8.37 3.75 8.37 8.37c0 4.62-3.74 8.35-8.37 8.35a8.34 8.34 0 0 1-8.35-8.35zm15.85 14.27v69.78h-14.99V22.64s1.95-2.75 7.65-2.75 7.34 2.72 7.34 2.75zm55.94-1.87c-9.51 0-17.16 4.18-21.34 10.66h-.29v-8.79s-2.11-2.75-7.51-2.75-7.48 2.75-7.48 2.75v69.78h14.99V53.36c0-11.4 7.5-17.6 17.14-17.6s16.6 5.2 16.6 17.88v38.78h15V50.33c0-17.31-12.41-29.55-27.11-29.55m39.77 16h8.52v30.27c0 14.57 7.22 19.9 22.64 27.24l6.62-11.82-8.06-4.6c-4.47-2.61-6.21-6.07-6.21-13.57V36.77h11.99V22.64h-11.99V0l-14.99 4.18v18.45h-8.52v14.15zm48.45-28.4c0-4.62 3.74-8.37 8.37-8.37 4.63 0 8.37 3.75 8.37 8.37 0 4.62-3.76 8.35-8.37 8.35-4.61 0-8.37-3.74-8.37-8.35zm15.86 14.27v69.78h-15.01V22.64h.01s1.95-2.75 7.64-2.75c5.69 0 7.34 2.72 7.36 2.75m55.93-1.87c-9.51 0-17.15 4.18-21.34 10.66h-.29v-8.79s-2.09-2.75-7.5-2.75-7.5 2.75-7.5 2.75v69.78h14.99V53.36c0-11.4 7.5-17.6 17.16-17.6s16.58 5.2 16.58 17.88v38.78h15V50.33c0-17.31-12.39-29.55-27.11-29.55m112.73 63.86c0 23.07-17.58 36.34-36.47 36.34-9.67 0-21.47-4.04-29.42-13.84l12.26-8.95c2.87 4.04 9.37 8.65 16.44 8.65 15.28 0 23.06-9.96 23.06-20.61v-4.61c-6.36 7.05-13.55 10.8-23.79 10.8-18 0-33.88-13.56-33.88-35.6s17.01-36.05 35.61-36.05c9.38 0 16.88 3.6 21.78 10.09h.28v-8.22s1.59-2.84 7-2.84 7.13 2.84 7.13 2.84v62zm-14.13-27.97c0-12.12-9.38-21.78-20.75-21.78s-21.05 9.66-21.05 21.64 8.35 21.77 21.05 21.77c12.7 0 20.75-9.66 20.75-21.62M136.15 92.15h16.66V63.69h26.3c20.12 0 32.49-13.21 32.49-30.89S199.28 1.88 179.15 1.88h-42.96v45.98h-10.78v15.8h10.78v28.46l-.04.03zm16.66-74.44h25.02c11.78 0 17.09 7.05 17.09 15.09s-5.31 15.09-17.09 15.09h-25.02V17.71z" fill="#008338"/><path d="M143.08 113.34c5.5 0 8.26 2.14 8.26 6.42 0 1.8-.55 3.31-1.66 4.55-1.11 1.24-2.67 2.04-4.68 2.41v.19c1.47.41 2.59 1.11 3.37 2.11.78 1 1.18 2.2 1.18 3.6 0 2.7-.97 4.82-2.91 6.36-1.94 1.54-4.53 2.3-7.78 2.3h-8.85l5.91-27.95h7.17l-.01.01zm-9.23 25.17h5.08c2.31 0 4.08-.51 5.31-1.54 1.24-1.02 1.85-2.47 1.85-4.35 0-1.48-.47-2.61-1.42-3.39-.95-.79-2.32-1.18-4.1-1.18h-4.51l-2.22 10.46h.01zm2.81-13.21h4.74c1.99 0 3.57-.47 4.76-1.4 1.19-.93 1.78-2.2 1.78-3.8 0-1.33-.42-2.31-1.27-2.97-.85-.65-2.18-.98-4-.98h-4.03l-1.97 9.16-.01-.01zM160.32 120.33l-2.87 13.28c-.23 1.13-.34 2.02-.34 2.66 0 1.82.94 2.73 2.81 2.73 1.12 0 2.22-.38 3.31-1.15 1.09-.77 2.04-1.86 2.87-3.29.83-1.43 1.46-3.15 1.89-5.16l1.91-9.08h3.17l-4.42 20.95h-2.66l.42-3.88h-.23c-1.25 1.59-2.44 2.7-3.57 3.33-1.13.63-2.31.94-3.52.94-1.63 0-2.91-.44-3.84-1.33-.93-.88-1.4-2.15-1.4-3.79 0-.79.14-1.89.42-3.29l2.79-12.92h3.26zM188.259 135.34c0 1.99-.7 3.54-2.11 4.65-1.41 1.12-3.39 1.67-5.95 1.67-2.15 0-4.1-.44-5.83-1.32v-3.02c.89.54 1.85.95 2.89 1.24 1.04.29 1.99.44 2.87.44 1.61 0 2.82-.32 3.63-.96.81-.64 1.22-1.45 1.22-2.45 0-.73-.22-1.34-.67-1.83-.45-.49-1.41-1.18-2.89-2.05-1.66-.93-2.83-1.84-3.52-2.73-.69-.89-1.03-1.95-1.03-3.17 0-1.76.64-3.18 1.93-4.25 1.29-1.07 2.98-1.61 5.08-1.61s4.28.47 6.31 1.41l-1.03 2.62-1.07-.48c-1.29-.55-2.69-.82-4.21-.82-1.19 0-2.12.28-2.79.83-.68.56-1.01 1.27-1.01 2.15 0 .71.23 1.33.68 1.83.45.5 1.39 1.17 2.8 1.97 1.36.76 2.34 1.42 2.93 1.97.59.55 1.04 1.14 1.33 1.77.29.63.44 1.34.44 2.13v.01zM195.239 141.28h-3.21l4.47-20.95h3.21l-4.47 20.95zm2.16-26.3c0-.71.2-1.3.61-1.75.41-.45.94-.68 1.59-.68 1.12 0 1.68.57 1.68 1.72 0 .7-.21 1.29-.64 1.78-.43.49-.92.73-1.48.73-.51 0-.93-.16-1.26-.47-.33-.31-.5-.76-.5-1.33zM214.701 141.28l2.83-13.23c.25-1.33.38-2.24.38-2.75 0-.8-.23-1.45-.68-1.93-.45-.48-1.18-.73-2.17-.73-1.13 0-2.24.38-3.32 1.15-1.08.77-2.03 1.85-2.85 3.27-.82 1.42-1.44 3.13-1.86 5.14l-1.93 9.08h-3.21l4.47-20.95h2.66l-.42 3.88h.19c1.22-1.55 2.41-2.65 3.55-3.3 1.14-.64 2.32-.96 3.55-.96 1.62 0 2.9.44 3.83 1.33.93.89 1.4 2.12 1.4 3.72 0 1.01-.15 2.15-.44 3.44l-2.73 12.84h-3.25zM232.68 141.67c-2.34 0-4.19-.69-5.52-2.08-1.33-1.39-2.01-3.31-2.01-5.77 0-2.46.47-4.69 1.42-6.89.95-2.2 2.21-3.91 3.78-5.13 1.57-1.22 3.29-1.83 5.18-1.83 1.89 0 3.42.42 4.4 1.27.98.85 1.47 2.03 1.47 3.55 0 2.29-1.06 4.09-3.17 5.4-2.12 1.31-5.14 1.96-9.08 1.96h-.63l-.08 1.53c0 1.67.39 2.97 1.18 3.91.78.93 2 1.4 3.64 1.4.8 0 1.63-.11 2.48-.34.85-.23 1.9-.65 3.16-1.26v2.79c-1.2.56-2.26.95-3.17 1.17-.92.22-1.93.34-3.04.34l-.01-.02zm2.66-18.98c-1.31 0-2.55.6-3.7 1.8-1.15 1.2-2.04 2.86-2.65 4.99h.23c2.91 0 5.13-.38 6.68-1.14 1.55-.76 2.32-1.86 2.32-3.3 0-.68-.23-1.24-.7-1.68-.47-.44-1.19-.67-2.19-.67h.01zM256.55 135.34c0 1.99-.7 3.54-2.11 4.65-1.41 1.12-3.39 1.67-5.95 1.67-2.15 0-4.1-.44-5.83-1.32v-3.02c.89.54 1.85.95 2.89 1.24 1.04.29 1.99.44 2.87.44 1.61 0 2.82-.32 3.63-.96.81-.64 1.22-1.45 1.22-2.45 0-.73-.22-1.34-.67-1.83-.45-.49-1.41-1.18-2.89-2.05-1.66-.93-2.83-1.84-3.52-2.73-.69-.89-1.03-1.95-1.03-3.17 0-1.76.64-3.18 1.93-4.25 1.29-1.07 2.98-1.61 5.08-1.61s4.28.47 6.31 1.41l-1.03 2.62-1.07-.48c-1.29-.55-2.69-.82-4.21-.82-1.19 0-2.12.28-2.79.83-.68.56-1.01 1.27-1.01 2.15 0 .71.23 1.33.68 1.83.45.5 1.39 1.17 2.8 1.97 1.36.76 2.34 1.42 2.93 1.97.59.55 1.04 1.14 1.33 1.77.29.63.44 1.34.44 2.13v.01zM273.24 135.34c0 1.99-.7 3.54-2.11 4.65-1.41 1.12-3.39 1.67-5.95 1.67-2.15 0-4.1-.44-5.83-1.32v-3.02c.89.54 1.85.95 2.89 1.24 1.04.29 1.99.44 2.87.44 1.61 0 2.82-.32 3.63-.96.81-.64 1.22-1.45 1.22-2.45 0-.73-.22-1.34-.67-1.83-.45-.49-1.41-1.18-2.89-2.05-1.66-.93-2.83-1.84-3.52-2.73-.69-.89-1.03-1.95-1.03-3.17 0-1.76.64-3.18 1.93-4.25 1.29-1.07 2.98-1.61 5.08-1.61s4.28.47 6.31 1.41l-1.03 2.62-1.07-.48c-1.29-.55-2.69-.82-4.21-.82-1.19 0-2.12.28-2.79.83-.68.56-1.01 1.27-1.01 2.15 0 .71.23 1.33.68 1.83.45.5 1.39 1.17 2.8 1.97 1.36.76 2.34 1.42 2.93 1.97.59.55 1.04 1.14 1.33 1.77.29.63.44 1.34.44 2.13v.01zM299.27 141.28l2.83-13.23c.23-1.2.34-2.06.34-2.58 0-.89-.2-1.59-.59-2.08-.39-.49-1.07-.75-2.03-.75-1.07 0-2.11.38-3.13 1.15-1.02.77-1.91 1.86-2.68 3.28-.77 1.42-1.37 3.13-1.79 5.13l-1.93 9.08h-3.21l4.47-20.95h2.66l-.42 3.88h.19c1.11-1.52 2.21-2.61 3.32-3.27 1.11-.66 2.24-.99 3.41-.99 1.44 0 2.55.41 3.33 1.24.78.83 1.24 1.98 1.38 3.46h.15c1.1-1.59 2.26-2.77 3.5-3.55 1.24-.77 2.48-1.16 3.75-1.16 1.62 0 2.87.43 3.76 1.3.89.87 1.33 2.13 1.33 3.78 0 .87-.14 2-.42 3.4l-2.75 12.84h-3.25l2.83-13.23c.25-1.33.38-2.26.38-2.79 0-.79-.22-1.42-.66-1.9-.44-.48-1.13-.72-2.07-.72-1.03 0-2.05.37-3.06 1.11-1.01.74-1.89 1.79-2.65 3.15-.76 1.36-1.33 2.96-1.73 4.83l-2.05 9.56h-3.21v.01zM332.24 119.95c1.17 0 2.22.31 3.13.95.92.63 1.63 1.54 2.14 2.72h.21l1.28-3.29h2.43l-4.45 20.95h-2.54l.5-3.99h-.15c-2.28 2.92-4.68 4.38-7.21 4.38-1.77 0-3.16-.63-4.17-1.89-1.01-1.26-1.51-2.99-1.51-5.18 0-2.65.45-5.11 1.36-7.38.91-2.27 2.15-4.05 3.75-5.33 1.6-1.28 3.34-1.93 5.24-1.93l-.01-.01zm-3.63 19.06c1.24 0 2.47-.59 3.69-1.77 1.22-1.18 2.22-2.71 2.98-4.6.76-1.89 1.15-3.79 1.15-5.69 0-1.31-.36-2.36-1.07-3.13-.71-.77-1.65-1.17-2.81-1.17-1.33 0-2.56.55-3.7 1.64-1.14 1.09-2.04 2.58-2.69 4.45-.65 1.87-.97 3.85-.97 5.93 0 1.45.3 2.54.9 3.26.6.72 1.44 1.08 2.52 1.08zM354.28 119.99c2.47 0 4.26 1.21 5.37 3.63h.19c.22-1.98.5-3.72.86-5.24l1.49-6.84h3.17l-6.31 29.74h-2.66l.42-3.99h-.15c-1.29 1.59-2.49 2.72-3.61 3.38-1.12.66-2.28.99-3.48.99-1.77 0-3.15-.62-4.15-1.87-1-1.25-1.49-2.98-1.49-5.2 0-2.73.46-5.22 1.38-7.49.92-2.27 2.16-4.02 3.72-5.26 1.56-1.24 3.31-1.85 5.25-1.85zm-3.63 19.02c1.2 0 2.43-.59 3.71-1.79 1.28-1.2 2.28-2.71 3.03-4.57a14.96 14.96 0 0 0 1.12-5.67c0-1.41-.34-2.49-1.03-3.23-.69-.74-1.69-1.11-3-1.11s-2.48.52-3.58 1.58c-1.1 1.05-1.99 2.53-2.66 4.43-.67 1.9-1 3.91-1 6.01 0 2.89 1.14 4.34 3.42 4.34l-.01.01zM373.979 141.67c-2.34 0-4.19-.69-5.52-2.08-1.33-1.39-2.01-3.31-2.01-5.77 0-2.46.47-4.69 1.42-6.89.95-2.2 2.21-3.91 3.78-5.13 1.57-1.22 3.29-1.83 5.18-1.83 1.89 0 3.42.42 4.4 1.27.98.85 1.47 2.03 1.47 3.55 0 2.29-1.06 4.09-3.17 5.4-2.12 1.31-5.14 1.96-9.08 1.96h-.63l-.08 1.53c0 1.67.39 2.97 1.18 3.91.78.93 2 1.4 3.64 1.4.8 0 1.63-.11 2.48-.34.85-.23 1.9-.65 3.16-1.26v2.79c-1.2.56-2.26.95-3.17 1.17-.92.22-1.93.34-3.04.34l-.01-.02zm2.66-18.98c-1.31 0-2.55.6-3.7 1.8-1.15 1.2-2.04 2.86-2.65 4.99h.23c2.91 0 5.13-.38 6.68-1.14 1.55-.76 2.32-1.86 2.32-3.3 0-.68-.23-1.24-.7-1.68-.47-.44-1.19-.67-2.19-.67h.01zM404.31 141.67c-1.24 0-2.32-.32-3.26-.97-.94-.65-1.64-1.54-2.11-2.66h-.19l-1.34 3.25h-2.39l6.31-29.74h3.21c-.65 3.08-1.15 5.45-1.5 7.08-.35 1.64-.83 3.55-1.44 5.74h.17c1.19-1.5 2.35-2.61 3.51-3.32 1.15-.71 2.34-1.06 3.56-1.06 1.8 0 3.2.63 4.21 1.89 1.01 1.26 1.51 2.99 1.51 5.2 0 2.66-.44 5.13-1.31 7.39-.87 2.26-2.09 4.03-3.65 5.29-1.56 1.27-3.32 1.9-5.29 1.9v.01zm3.56-19.02c-1.22 0-2.47.61-3.74 1.82s-2.27 2.73-3.02 4.57c-.75 1.84-1.12 3.71-1.12 5.64 0 1.4.35 2.48 1.06 3.22.71.75 1.73 1.12 3.07 1.12 1.26 0 2.44-.52 3.53-1.55 1.09-1.03 1.97-2.5 2.63-4.4.66-1.9.99-3.93.99-6.07 0-2.89-1.13-4.34-3.4-4.34v-.01zM430.78 119.95c.88 0 1.64.09 2.29.27l-.69 2.87c-.68-.17-1.34-.25-2.01-.25-1.16 0-2.25.38-3.26 1.15-1.01.77-1.9 1.82-2.66 3.18-.76 1.36-1.32 2.86-1.67 4.52l-2.05 9.6h-3.21l4.47-20.95h2.66l-.42 3.88h.19c.92-1.21 1.68-2.08 2.27-2.61.6-.53 1.23-.93 1.88-1.22.66-.28 1.39-.43 2.19-.43l.02-.01zM436.171 141.28h-3.21l4.47-20.95h3.21l-4.47 20.95zm2.16-26.3c0-.71.2-1.3.61-1.75.41-.45.94-.68 1.59-.68 1.12 0 1.68.57 1.68 1.72 0 .7-.21 1.29-.64 1.78-.43.49-.92.73-1.48.73-.51 0-.93-.16-1.26-.47-.33-.31-.5-.76-.5-1.33zM445.999 141.28h-3.21l6.35-29.74h3.21l-6.35 29.74zM455.86 141.28h-3.21l6.35-29.74h3.21l-6.35 29.74zM465.761 141.28h-3.21l4.47-20.95h3.21l-4.47 20.95zm2.16-26.3c0-.71.2-1.3.61-1.75.41-.45.94-.68 1.59-.68 1.12 0 1.68.57 1.68 1.72 0 .7-.21 1.29-.64 1.78-.43.49-.92.73-1.48.73-.51 0-.93-.16-1.26-.47-.33-.31-.5-.76-.5-1.33zM483.49 119.95c1.17 0 2.22.31 3.13.95.92.63 1.63 1.54 2.14 2.72h.21l1.28-3.29h2.43l-4.45 20.95h-2.54l.5-3.99h-.15c-2.28 2.92-4.68 4.38-7.21 4.38-1.77 0-3.16-.63-4.17-1.89-1.01-1.26-1.51-2.99-1.51-5.18 0-2.65.45-5.11 1.36-7.38.91-2.27 2.15-4.05 3.75-5.33 1.6-1.28 3.34-1.93 5.24-1.93l-.01-.01zm-3.63 19.06c1.24 0 2.47-.59 3.69-1.77 1.22-1.18 2.22-2.71 2.98-4.6.76-1.89 1.15-3.79 1.15-5.69 0-1.31-.36-2.36-1.07-3.13-.71-.77-1.65-1.17-2.81-1.17-1.33 0-2.56.55-3.7 1.64-1.14 1.09-2.04 2.58-2.69 4.45-.65 1.87-.97 3.85-.97 5.93 0 1.45.3 2.54.9 3.26.6.72 1.44 1.08 2.52 1.08zM507.249 141.28l2.83-13.23c.25-1.33.38-2.24.38-2.75 0-.8-.23-1.45-.68-1.93-.45-.48-1.18-.73-2.17-.73-1.13 0-2.24.38-3.32 1.15-1.08.77-2.03 1.85-2.85 3.27-.82 1.42-1.44 3.13-1.86 5.14l-1.93 9.08h-3.21l4.47-20.95h2.66l-.42 3.88h.19c1.22-1.55 2.41-2.65 3.55-3.3 1.14-.64 2.32-.96 3.55-.96 1.62 0 2.9.44 3.83 1.33.93.89 1.4 2.12 1.4 3.72 0 1.01-.15 2.15-.44 3.44l-2.73 12.84h-3.25zM523.379 139.05c.7 0 1.62-.17 2.75-.5v2.47c-.43.18-.97.33-1.61.46-.64.13-1.15.19-1.53.19-1.59 0-2.81-.38-3.66-1.14-.85-.76-1.27-1.89-1.27-3.39 0-.84.11-1.8.34-2.87l2.43-11.51h-3.29l.27-1.4 3.54-1.49 2.39-4.36h1.87l-1.05 4.82h5.24l-.5 2.43h-5.22l-2.47 11.55c-.23 1.11-.34 1.95-.34 2.52 0 .71.18 1.26.55 1.64.37.38.89.57 1.55.57l.01.01z" fill="#B2B1B1"/><path d="M628.039.88c1.64 0 3.24.42 4.8 1.26 1.56.84 2.78 2.04 3.65 3.61.87 1.56 1.3 3.19 1.3 4.89 0 1.7-.43 3.29-1.29 4.85a9.15 9.15 0 0 1-3.6 3.62c-1.55.86-3.17 1.28-4.86 1.28-1.69 0-3.31-.42-4.86-1.28a9.048 9.048 0 0 1-3.61-3.62c-.86-1.55-1.29-3.17-1.29-4.85 0-1.68.43-3.33 1.31-4.89a8.96 8.96 0 0 1 3.66-3.61c1.56-.84 3.15-1.26 4.79-1.26zm0 1.61c-1.37 0-2.71.35-4 1.05-1.3.7-2.31 1.71-3.05 3.01-.73 1.31-1.1 2.67-1.1 4.09s.36 2.75 1.08 4.03a7.63 7.63 0 0 0 3.02 3.02c1.29.71 2.64 1.07 4.05 1.07 1.41 0 2.76-.36 4.05-1.07 1.29-.72 2.3-1.73 3.01-3.02.71-1.28 1.08-2.63 1.08-4.03 0-1.4-.37-2.77-1.1-4.09-.73-1.3-1.74-2.31-3.04-3.01-1.3-.7-2.64-1.05-4-1.05zm-4.28 13.54V5.54h3.61c1.23 0 2.12.09 2.67.29.55.2.99.53 1.32 1.01.33.49.49 1 .49 1.54 0 .77-.27 1.44-.82 2.01-.55.57-1.27.89-2.18.95.37.15.67.34.9.56.42.41.94 1.11 1.55 2.08l1.28 2.06h-2.07l-.93-1.65c-.73-1.3-1.32-2.12-1.77-2.44-.31-.24-.77-.36-1.36-.36h-1v4.46h-1.69v-.02zm1.69-5.91h2.05c.98 0 1.66-.15 2.01-.44.36-.29.54-.68.54-1.16 0-.31-.09-.59-.26-.84s-.42-.42-.72-.55c-.3-.12-.87-.18-1.7-.18h-1.93v3.17h.01z" fill="#008338"/></g><defs><clipPath id="a"><path fill="#fff" d="M0 0h637.79v142.15H0z"/></clipPath></defs></svg>